# xmcd
#
# Track frame offsets:
# 150
# 20996
# 34030
# 47096
# 64011
# 75916
# 98291
# 113955
# 129373
# 149615
# 164251
# 176194
# 186762
# 200618
# 214947
# 230708
#
# Disc length: 3267 seconds
#
#
# Revision: 0
# Processed by: cddbd v1.5.2PL0 Copyright (c) Steve Scherf et al.
# Submitted via: FreeRIP 2.942 
#
DISCID=e20cc110
DTITLE=Hugo Pena and Gabriel - Hugo Pena and Gabriel - Ao vivo
DYEAR=2008
DGENRE=Country
TTITLE0=Morro de Saudade
TTITLE1=Bandidassa
TTITLE2=Mala pronta
TTITLE3=Por enquanto adeus
TTITLE4=Tadim Tadim
TTITLE5=Parece
TTITLE6=Pra lá de bagdá
TTITLE7=Pot-Pourri Viola Pagode/Pagode em Brasília/Vou tomá um pingão
TTITLE8=Vou te amar (Cigana)
TTITLE9=Meu calor
TTITLE10=Robin Hood da paixão
TTITLE11=Abuso de mulher
TTITLE12=Coisas esotéricas
TTITLE13=Fora do eixo
TTITLE14=Amanhã vazio (Quem sabe)
TTITLE15=Ela é violenta
EXTD=
EXTT0=
EXTT1=
EXTT2=
EXTT3=
EXTT4=
EXTT5=
EXTT6=
EXTT7=
EXTT8=
EXTT9=
EXTT10=
EXTT11=
EXTT12=
EXTT13=
EXTT14=
EXTT15=
PLAYORDER=
